<svg width="28" height="29" viewBox="0 0 28 29" fill="none" xmlns="http://www.w3.org/2000/svg">
<circle cx="14" cy="14.0854" r="13.5" stroke="#D4D4D8"/>
<path fill-rule="evenodd" clip-rule="evenodd" d="M14.6068 7.31201C11.0159 7.31201 8.12695 10.201 8.12695 13.7919C8.12695 16.6539 9.98992 19.0838 12.5549 19.9478C12.8789 20.0018 12.9869 19.8128 12.9869 19.6238C12.9869 19.4618 12.9869 19.0568 12.9869 18.5168C11.1779 18.9218 10.7999 17.6528 10.7999 17.6528C10.5029 16.8969 10.0709 16.7079 10.0709 16.7079C9.47693 16.3029 10.1249 16.3029 10.1249 16.3029C10.7729 16.3569 11.1239 16.9779 11.1239 16.9779C11.6909 17.9768 12.6359 17.6798 13.0139 17.5178C13.0679 17.0859 13.2299 16.8159 13.4189 16.6539C11.9879 16.4919 10.4759 15.9249 10.4759 13.4409C10.4759 12.7389 10.7189 12.1449 11.1509 11.7129C11.0969 11.5509 10.8539 10.903 11.2049 9.98497C11.2049 9.98497 11.7449 9.82297 12.9869 10.66C13.4999 10.525 14.0669 10.444 14.6068 10.444C15.1468 10.444 15.7138 10.525 16.2268 10.66C17.4688 9.82297 18.0088 9.98497 18.0088 9.98497C18.3598 10.876 18.1438 11.5239 18.0628 11.7129C18.4678 12.1719 18.7378 12.7389 18.7378 13.4409C18.7378 15.9249 17.2258 16.4649 15.7678 16.6269C16.0108 16.8159 16.1998 17.2209 16.1998 17.8148C16.1998 18.6788 16.1998 19.3808 16.1998 19.5968C16.1998 19.7588 16.3078 19.9748 16.6588 19.9208C19.2238 19.0838 21.0867 16.6539 21.0867 13.7919C21.0867 10.201 18.1978 7.31201 14.6068 7.31201Z" fill="#090914"/>
</svg>
