<svg width="28" height="29" viewBox="0 0 28 29" fill="none" xmlns="http://www.w3.org/2000/svg">
<circle cx="14" cy="14.0854" r="13.5" stroke="#D4D4D8"/>
<path d="M14.0008 8.53266C15.8095 8.53266 16.0237 8.53943 16.7382 8.57201C17.1678 8.57727 17.5933 8.65615 17.9962 8.80524C18.2884 8.91793 18.5538 9.09056 18.7753 9.31201C18.9967 9.53347 19.1694 9.79884 19.282 10.091C19.4311 10.494 19.51 10.9195 19.5153 11.3491C19.5475 12.0636 19.5546 12.2778 19.5546 14.0865C19.5546 15.8952 19.5479 16.1094 19.5153 16.8239C19.51 17.2535 19.4311 17.6791 19.282 18.082C19.1694 18.3742 18.9967 18.6396 18.7753 18.861C18.5538 19.0825 18.2884 19.2551 17.9962 19.3678C17.5933 19.5169 17.1678 19.5958 16.7382 19.601C16.024 19.6333 15.8098 19.6404 14.0008 19.6404C12.1917 19.6404 11.9775 19.6336 11.2633 19.601C10.8337 19.5958 10.4082 19.5169 10.0053 19.3678C9.71307 19.2551 9.44769 19.0825 9.22624 18.861C9.00479 18.6396 8.83216 18.3742 8.71947 18.082C8.57038 17.6791 8.4915 17.2535 8.48624 16.8239C8.45398 16.1094 8.44689 15.8952 8.44689 14.0865C8.44689 12.2778 8.45366 12.0636 8.48624 11.3491C8.4915 10.9195 8.57038 10.494 8.71947 10.091C8.83216 9.79884 9.00479 9.53347 9.22624 9.31201C9.44769 9.09056 9.71307 8.91793 10.0053 8.80524C10.4082 8.65615 10.8337 8.57727 11.2633 8.57201C11.9779 8.53975 12.192 8.53266 14.0008 8.53266ZM14.0008 7.31201C12.162 7.31201 11.9304 7.31975 11.2079 7.35266C10.6456 7.36384 10.0893 7.4703 9.56269 7.6675C9.11092 7.83771 8.70172 8.10445 8.36366 8.44911C8.01869 8.78729 7.75172 9.19672 7.5814 9.64879C7.3842 10.1754 7.27775 10.7317 7.26656 11.2939C7.2343 12.0159 7.22656 12.2475 7.22656 14.0862C7.22656 15.9249 7.2343 16.1565 7.26721 16.8791C7.27839 17.4413 7.38485 17.9976 7.58205 18.5243C7.75218 18.9763 8.01892 19.3857 8.36366 19.7239C8.70191 20.0687 9.11133 20.3354 9.56334 20.5056C10.09 20.7028 10.6463 20.8092 11.2085 20.8204C11.9311 20.8527 12.1617 20.861 14.0014 20.861C15.8411 20.861 16.0717 20.8533 16.7943 20.8204C17.3565 20.8092 17.9128 20.7028 18.4395 20.5056C18.8893 20.3312 19.2978 20.0648 19.6389 19.7236C19.98 19.3823 20.246 18.9736 20.4201 18.5236C20.6173 17.997 20.7238 17.4407 20.735 16.8785C20.7672 16.1565 20.775 15.9249 20.775 14.0862C20.775 12.2475 20.7672 12.0159 20.7343 11.2933C20.7231 10.7311 20.6167 10.1748 20.4195 9.64814C20.2493 9.19613 19.9826 8.78671 19.6379 8.44846C19.2996 8.10373 18.8902 7.83698 18.4382 7.66685C17.9115 7.46965 17.3553 7.36319 16.793 7.35201C16.0711 7.31975 15.8395 7.31201 14.0008 7.31201Z" fill="#090914"/>
<path d="M14.0021 10.6089C13.3141 10.6089 12.6416 10.8129 12.0695 11.1952C11.4974 11.5774 11.0515 12.1207 10.7882 12.7564C10.5249 13.392 10.4561 14.0915 10.5903 14.7663C10.7245 15.4411 11.0558 16.0609 11.5423 16.5474C12.0288 17.0339 12.6487 17.3652 13.3235 17.4995C13.9983 17.6337 14.6977 17.5648 15.3334 17.3015C15.969 17.0382 16.5123 16.5923 16.8946 16.0203C17.2768 15.4482 17.4809 14.7756 17.4809 14.0876C17.4809 13.165 17.1144 12.2802 16.462 11.6278C15.8096 10.9754 14.9248 10.6089 14.0021 10.6089ZM14.0021 16.3457C13.5555 16.3457 13.119 16.2132 12.7476 15.9651C12.3763 15.717 12.0869 15.3643 11.916 14.9517C11.7451 14.5391 11.7003 14.0851 11.7875 13.6471C11.8746 13.209 12.0897 12.8067 12.4055 12.4909C12.7213 12.1751 13.1236 11.96 13.5616 11.8729C13.9996 11.7858 14.4537 11.8305 14.8663 12.0014C15.2789 12.1723 15.6315 12.4617 15.8797 12.8331C16.1278 13.2044 16.2602 13.641 16.2602 14.0876C16.2602 14.6865 16.0223 15.2608 15.5988 15.6843C15.1754 16.1078 14.601 16.3457 14.0021 16.3457Z" fill="#090914"/>
<path d="M17.6176 11.2835C18.0665 11.2835 18.4305 10.9196 18.4305 10.4706C18.4305 10.0217 18.0665 9.65771 17.6176 9.65771C17.1686 9.65771 16.8047 10.0217 16.8047 10.4706C16.8047 10.9196 17.1686 11.2835 17.6176 11.2835Z" fill="#090914"/>
</svg>
