<svg width="60" height="60" viewBox="0 0 60 60" fill="none" xmlns="http://www.w3.org/2000/svg">
<path d="M41.3636 30.2727L48.8182 54.4545C49.0909 55.4545 48.1818 56.2727 47.2727 56L42.9091 54.6363C42.4545 54.4545 41.9091 54.6363 41.5455 55.0909L38.6364 58.6363C38 59.4545 36.7273 59.1818 36.4545 58.1818L29 34L41.3636 30.2727Z" fill="url(#paint0_linear_1003_339)"/>
<path d="M18.6366 30.2727L11.182 54.4545C10.9093 55.4545 11.8184 56.2727 12.7275 56L17.0911 54.6363C17.5456 54.4545 18.0911 54.6363 18.4547 55.0909L21.3638 58.6363C22.0002 59.4545 23.2729 59.1818 23.5456 58.1818L31.0002 34L18.6366 30.2727Z" fill="url(#paint1_linear_1003_339)"/>
<path d="M49.182 27.1818C47.8184 28.5454 47.0911 30.2727 47.0911 32.1818C47.0911 36.0909 43.9093 39.2727 40.0002 39.2727C38.0911 39.2727 36.3639 40 35.0002 41.3636C32.273 44.0909 27.7275 44.0909 25.0002 41.3636C23.6366 40 21.8184 39.2727 20.0002 39.2727C16.0911 39.2727 12.9093 36.0909 12.9093 32.1818C12.9093 30.2727 12.182 28.5454 10.8184 27.1818C8.09113 24.4545 8.09113 19.9091 10.8184 17.1818C12.182 15.8182 12.9093 14.0909 12.9093 12.1818C12.9093 8.27271 16.0911 5.09089 20.0002 5.09089C21.9093 5.09089 23.6366 4.36362 25.0002 2.99998C27.7275 0.272711 32.273 0.272711 35.0002 2.99998C36.3639 4.27271 38.182 5.09089 40.0002 5.09089C43.9093 5.09089 47.0911 8.27271 47.0911 12.1818C47.0911 14.0909 47.8184 15.8182 49.182 17.1818C52.0002 19.9091 52.0002 24.3636 49.182 27.1818Z" fill="url(#paint2_linear_1003_339)"/>
<path d="M30.0001 35.2727C37.23 35.2727 43.091 29.4117 43.091 22.1818C43.091 14.9519 37.23 9.09088 30.0001 9.09088C22.7702 9.09088 16.9092 14.9519 16.9092 22.1818C16.9092 29.4117 22.7702 35.2727 30.0001 35.2727Z" fill="url(#paint3_linear_1003_339)"/>
<path d="M30.8186 15.3636L32.455 18.6364C32.6368 18.9091 32.8186 19.0909 33.1823 19.1818L36.8186 19.7273C37.6368 19.8182 37.9095 20.8182 37.3641 21.3636L34.7277 23.9091C34.5459 24.0909 34.3641 24.4545 34.455 24.7273L35.0913 28.3636C35.1823 29.1818 34.3641 29.7273 33.7277 29.3636L30.455 27.6364C30.1823 27.4545 29.8186 27.4545 29.5459 27.6364L26.2732 29.3636C25.5459 29.7273 24.7277 29.1818 24.9095 28.3636L25.5459 24.7273C25.6368 24.4545 25.455 24.0909 25.2732 23.9091L22.6368 21.3636C22.0914 20.8182 22.3641 19.8182 23.1823 19.7273L26.8186 19.1818C27.0914 19.1818 27.3641 18.9091 27.5459 18.6364L29.1823 15.3636C29.455 14.6364 30.5459 14.6364 30.8186 15.3636Z" fill="url(#paint4_linear_1003_339)"/>
<defs>
<linearGradient id="paint0_linear_1003_339" x1="39.5382" y1="46.1145" x2="37.0191" y2="38.6982" gradientUnits="userSpaceOnUse">
<stop stop-color="#1FA7DF"/>
<stop offset="1" stop-color="#1F6CA7"/>
</linearGradient>
<linearGradient id="paint1_linear_1003_339" x1="20.4629" y1="46.1145" x2="22.9811" y2="38.6982" gradientUnits="userSpaceOnUse">
<stop stop-color="#1A4473"/>
<stop offset="1" stop-color="#182C54"/>
</linearGradient>
<linearGradient id="paint2_linear_1003_339" x1="16.5811" y1="8.74817" x2="33.0239" y2="25.1909" gradientUnits="userSpaceOnUse">
<stop stop-color="#A5D1F3"/>
<stop offset="1" stop-color="#82B6E9"/>
</linearGradient>
<linearGradient id="paint3_linear_1003_339" x1="24.7337" y1="16.9063" x2="20.9192" y2="13.0918" gradientUnits="userSpaceOnUse">
<stop stop-color="#DEF1F7"/>
<stop offset="1" stop-color="#B6DEF7"/>
</linearGradient>
<linearGradient id="paint4_linear_1003_339" x1="22.3177" y1="22.1727" x2="37.6832" y2="22.1727" gradientUnits="userSpaceOnUse">
<stop stop-color="#EF662B"/>
<stop offset="1" stop-color="#D53727"/>
</linearGradient>
</defs>
</svg>
