<svg width="60" height="60" viewBox="0 0 60 60" fill="none" xmlns="http://www.w3.org/2000/svg">
<path d="M44.3875 7.03089V55.3684C44.3875 57.517 42.6456 59.2589 40.497 59.2589H7.26063C5.11199 59.2589 3.37012 57.517 3.37012 55.3684V7.03089C3.37012 4.88226 5.11199 3.14038 7.26063 3.14038H40.497C42.6456 3.14038 44.3875 4.88226 44.3875 7.03089Z" fill="#F78721"/>
<path opacity="0.12" d="M44.3902 7.03359V55.3702C44.3902 57.5194 42.6421 59.2602 40.5001 59.2602H7.25832C5.1091 59.2602 3.36816 57.5194 3.36816 55.3702V54.883H17.8971C30.112 54.883 40.0128 44.9821 40.0128 32.7671V3.14355H40.5C42.6421 3.14355 44.3902 4.88437 44.3902 7.03359Z" fill="black"/>
<path d="M7.53223 7.3017H40.2268V55.0977H7.53223V7.3017Z" fill="#E8F1F8"/>
<path opacity="0.12" d="M40.2276 7.29852V55.098H7.53027V51.4371H22.4317C30.2335 51.4371 36.5595 45.1039 36.5595 37.3022V7.29852H40.2276Z" fill="black"/>
<path d="M35.0924 7.21956V7.63277C35.0924 8.48777 34.3993 9.18093 33.5443 9.18093H14.2083C13.3533 9.18093 12.6602 8.48777 12.6602 7.63277V7.21956C12.6602 5.97374 13.6701 4.9637 14.916 4.9637H15.7562C16.9227 4.9637 17.8683 4.01812 17.8683 2.85163C17.8683 1.68515 18.8139 0.739563 19.9804 0.739563H27.7724C28.9389 0.739563 29.8845 1.68515 29.8845 2.85163C29.8845 4.01812 30.8301 4.9637 31.9966 4.9637H32.8368C34.0825 4.96382 35.0924 5.97374 35.0924 7.21956Z" fill="#474747"/>
<path d="M17.841 22.7461V26.2185C17.841 26.5876 17.5417 26.8869 17.1725 26.8869H14.6987C14.3296 26.8869 14.0303 26.5876 14.0303 26.2185V22.7461C14.0303 22.3769 14.3296 22.0776 14.6987 22.0776H17.1725C17.5417 22.0776 17.841 22.3768 17.841 22.7461Z" fill="#F14F4A"/>
<path opacity="0.12" d="M17.8405 22.7449V26.2185C17.8405 26.5884 17.5419 26.8869 17.1721 26.8869H14.6987C14.3289 26.8869 14.0303 26.5883 14.0303 26.2185V26.1561C15.7371 26.125 17.112 24.7301 17.112 23.0143V22.0766H17.1721C17.5419 22.0765 17.8405 22.3773 17.8405 22.7449Z" fill="black"/>
<path d="M23.1369 17.0242V26.2185C23.1369 26.5876 22.8376 26.8869 22.4684 26.8869H19.9946C19.6255 26.8869 19.3262 26.5876 19.3262 26.2185V17.0242C19.3262 16.655 19.6255 16.3557 19.9946 16.3557H22.4684C22.8376 16.3557 23.1369 16.655 23.1369 17.0242Z" fill="#475DA9"/>
<path opacity="0.12" d="M23.1364 17.0231V26.2185C23.1364 26.5884 22.8378 26.8869 22.468 26.8869H19.9946C19.6248 26.8869 19.3262 26.5883 19.3262 26.2185V26.1561C21.033 26.1249 22.4079 24.7301 22.4079 23.0143V16.3547H22.468C22.8378 16.3546 23.1364 16.6554 23.1364 17.0231Z" fill="black"/>
<path d="M28.4328 19.5738V26.2185C28.4328 26.5876 28.1335 26.8869 27.7643 26.8869H25.2905C24.9214 26.8869 24.6221 26.5876 24.6221 26.2185V19.5738C24.6221 19.2047 24.9214 18.9054 25.2905 18.9054H27.7643C28.1335 18.9054 28.4328 19.2047 28.4328 19.5738Z" fill="#F14F4A"/>
<path opacity="0.12" d="M28.4323 19.5728V26.2185C28.4323 26.5884 28.1337 26.8869 27.7639 26.8869H25.2905C24.9207 26.8869 24.6221 26.5883 24.6221 26.2185V26.1561C26.3289 26.125 27.7037 24.7301 27.7037 23.0143V18.9043H27.7639C28.1337 18.9042 28.4323 19.205 28.4323 19.5728Z" fill="black"/>
<path d="M33.7277 13.8519V26.2185C33.7277 26.5876 33.4284 26.8869 33.0593 26.8869H30.5854C30.2163 26.8869 29.917 26.5876 29.917 26.2185V13.8519C29.917 13.4828 30.2163 13.1835 30.5854 13.1835H33.0593C33.4284 13.1835 33.7277 13.4828 33.7277 13.8519Z" fill="#475DA9"/>
<path opacity="0.12" d="M33.7272 13.8508V26.2185C33.7272 26.5884 33.4286 26.8869 33.0588 26.8869H30.5854C30.2156 26.8869 29.917 26.5883 29.917 26.2185V26.1561C31.6238 26.1249 32.9987 24.7301 32.9987 23.0143V13.1824H33.0588C33.4286 13.1824 33.7272 13.4831 33.7272 13.8508Z" fill="black"/>
<path d="M35.7695 32.2422H11.9888C11.6448 32.2422 11.3662 31.9634 11.3662 31.6195C11.3662 31.2757 11.6446 30.9969 11.9888 30.9969H35.7695C36.1135 30.9969 36.3921 31.2757 36.3921 31.6195C36.3921 31.9634 36.1136 32.2422 35.7695 32.2422Z" fill="#474747"/>
<path d="M35.7695 37.5928H11.9888C11.6448 37.5928 11.3662 37.314 11.3662 36.9702C11.3662 36.6264 11.6446 36.3476 11.9888 36.3476H35.7695C36.1135 36.3476 36.3921 36.6264 36.3921 36.9702C36.3921 37.314 36.1136 37.5928 35.7695 37.5928Z" fill="#474747"/>
<path d="M26.3728 42.9436H11.9888C11.6448 42.9436 11.3662 42.6648 11.3662 42.321C11.3662 41.9772 11.6446 41.6984 11.9888 41.6984H26.3728C26.7168 41.6984 26.9954 41.9772 26.9954 42.321C26.9954 42.6648 26.7168 42.9436 26.3728 42.9436Z" fill="#474747"/>
<path d="M50.2521 49.5538C50.2521 54.9165 45.9083 59.2603 40.5456 59.2603C35.1905 59.2603 30.8467 54.9165 30.8467 49.5538C30.8467 44.1986 35.1905 39.8549 40.5456 39.8549C45.9083 39.8549 50.2521 44.1986 50.2521 49.5538Z" fill="#0E9C4A"/>
<path d="M37.5361 53.5894L35.4994 51.5526C34.7697 50.8234 34.7697 49.6408 35.4994 48.9116C36.229 48.182 37.4108 48.182 38.1404 48.9116L38.8565 49.6275L42.9592 45.5252C43.6888 44.7963 44.8706 44.796 45.6002 45.5256C46.3298 46.2548 46.3298 47.4374 45.6002 48.1669L40.1771 53.5896C39.4474 54.3189 38.2657 54.319 37.5361 53.5894Z" fill="#E8F1F8"/>
<path d="M56.0104 50.1803L52.8873 50.1799C52.5432 50.1799 52.2646 49.9011 52.2646 49.5573C52.2646 49.2135 52.5437 48.9347 52.8873 48.9347L56.0104 48.935C56.3545 48.935 56.633 49.2138 56.633 49.5577C56.633 49.9015 56.3539 50.1803 56.0104 50.1803Z" fill="black"/>
<path d="M52.531 46.6498C52.2878 46.4066 52.2878 46.0123 52.531 45.7695L53.6552 44.6456C53.8983 44.4025 54.2923 44.4025 54.5355 44.6456C54.7787 44.8888 54.7787 45.2831 54.5355 45.5259L53.4113 46.6498C53.1682 46.8929 52.7743 46.8929 52.531 46.6498Z" fill="black"/>
<path d="M53.6535 54.4698L52.53 53.3456C52.2869 53.1025 52.2869 52.7081 52.53 52.4649C52.7732 52.2224 53.1672 52.222 53.4103 52.4653L54.5338 53.5895C54.777 53.8326 54.777 54.227 54.5338 54.4701C54.2905 54.7128 53.8968 54.713 53.6535 54.4698Z" fill="black"/>
</svg>
