<svg width="60" height="60" viewBox="0 0 60 60" fill="none" xmlns="http://www.w3.org/2000/svg">
<path d="M30 28.125C28.2595 28.125 26.5903 28.8164 25.3596 30.0471C24.1289 31.2778 23.4375 32.947 23.4375 34.6875V49.6875C23.4375 51.428 24.1289 53.0972 25.3596 54.3279C26.5903 55.5586 28.2595 56.25 30 56.25C31.7405 56.25 33.4097 55.5586 34.6404 54.3279C35.8711 53.0972 36.5625 51.428 36.5625 49.6875V34.6875C36.5625 32.947 35.8711 31.2778 34.6404 30.0471C33.4097 28.8164 31.7405 28.125 30 28.125Z" fill="url(#paint0_linear_1003_351)"/>
<path d="M46.875 16.875C45.1345 16.875 43.4653 17.5664 42.2346 18.7971C41.0039 20.0278 40.3125 21.697 40.3125 23.4375V49.6875C40.3125 51.428 41.0039 53.0972 42.2346 54.3279C43.4653 55.5586 45.1345 56.25 46.875 56.25C48.6155 56.25 50.2847 55.5586 51.5154 54.3279C52.7461 53.0972 53.4375 51.428 53.4375 49.6875V23.4375C53.4375 21.697 52.7461 20.0278 51.5154 18.7971C50.2847 17.5664 48.6155 16.875 46.875 16.875Z" fill="url(#paint1_linear_1003_351)"/>
<path d="M13.125 39.2812C11.3845 39.2812 9.71532 39.9727 8.48461 41.2034C7.2539 42.4341 6.5625 44.1033 6.5625 45.8438V49.5938C6.5625 51.3342 7.2539 53.0034 8.48461 54.2341C9.71532 55.4648 11.3845 56.1562 13.125 56.1562C14.8655 56.1562 16.5347 55.4648 17.7654 54.2341C18.9961 53.0034 19.6875 51.3342 19.6875 49.5938V45.8438C19.6875 44.1033 18.9961 42.4341 17.7654 41.2034C16.5347 39.9727 14.8655 39.2812 13.125 39.2812Z" fill="url(#paint2_linear_1003_351)"/>
<path d="M36.5625 7.96875C36.5625 7.34715 36.3156 6.75101 35.876 6.31147C35.4365 5.87193 34.8404 5.625 34.2188 5.625H25.3125C24.5666 5.625 23.8512 5.92132 23.3238 6.44876C22.7963 6.97621 22.5 7.69158 22.5 8.4375C22.5 9.18342 22.7963 9.89879 23.3238 10.4262C23.8512 10.9537 24.5666 11.25 25.3125 11.25H27L8.34375 29.9062C8.07713 30.1602 7.86486 30.4656 7.71982 30.804C7.57479 31.1425 7.5 31.5068 7.5 31.875C7.5 32.2432 7.57479 32.6075 7.71982 32.946C7.86486 33.2844 8.07713 33.5898 8.34375 33.8437C8.61512 34.1132 8.93699 34.3264 9.29092 34.4712C9.64484 34.6159 10.0239 34.6895 10.4063 34.6875C10.7746 34.6886 11.1393 34.6143 11.4779 34.4692C11.8165 34.3241 12.1218 34.1112 12.375 33.8437L30.9375 15.1875V16.7812C30.9375 17.5272 31.2338 18.2425 31.7613 18.77C32.2887 19.2974 33.0041 19.5938 33.75 19.5938C34.4959 19.5938 35.2113 19.2974 35.7387 18.77C36.2662 18.2425 36.5625 17.5272 36.5625 16.7812V7.96875Z" fill="url(#paint3_linear_1003_351)"/>
<defs>
<linearGradient id="paint0_linear_1003_351" x1="9.36562" y1="44.8781" x2="33.2156" y2="41.7656" gradientUnits="userSpaceOnUse">
<stop stop-color="#FFAF48"/>
<stop offset="1" stop-color="#FF5924"/>
</linearGradient>
<linearGradient id="paint1_linear_1003_351" x1="59.1844" y1="34.8656" x2="33.675" y2="38.3906" gradientUnits="userSpaceOnUse">
<stop stop-color="#FF005D"/>
<stop offset="1" stop-color="#FF5924"/>
</linearGradient>
<linearGradient id="paint2_linear_1003_351" x1="3.08437" y1="49.2" x2="27.7594" y2="45.675" gradientUnits="userSpaceOnUse">
<stop stop-color="#FFAF48"/>
<stop offset="1" stop-color="#FF5924"/>
</linearGradient>
<linearGradient id="paint3_linear_1003_351" x1="7.37812" y1="32.8031" x2="33.0938" y2="9.36562" gradientUnits="userSpaceOnUse">
<stop stop-color="#134287"/>
<stop offset="1" stop-color="#061F4A"/>
</linearGradient>
</defs>
</svg>
