<svg width="20" height="19" viewBox="0 0 20 19" fill="none" xmlns="http://www.w3.org/2000/svg">
<path d="M10.5581 0.231874L13.2557 5.71603L19.2862 6.59566C19.3627 6.60704 19.4345 6.63957 19.4936 6.68957C19.5527 6.73957 19.5966 6.80506 19.6204 6.87868C19.6443 6.95229 19.6471 7.0311 19.6285 7.10622C19.61 7.18135 19.5709 7.24981 19.5155 7.30389L15.1527 11.5718L16.1828 17.5993C16.1961 17.6755 16.1877 17.7539 16.1587 17.8256C16.1297 17.8973 16.0812 17.9594 16.0187 18.005C15.9562 18.0505 15.8821 18.0776 15.805 18.0832C15.7279 18.0888 15.6507 18.0727 15.5823 18.0367L10.1881 15.1914L4.79398 18.0375C4.72558 18.0736 4.64842 18.0899 4.57126 18.0844C4.49409 18.0788 4.42002 18.0518 4.35747 18.0063C4.29491 17.9608 4.24638 17.8986 4.21739 17.8269C4.18839 17.7552 4.1801 17.6768 4.19344 17.6006L5.22352 11.5718L0.859462 7.30389C0.804128 7.24981 0.764993 7.18135 0.746465 7.10622C0.727937 7.0311 0.730751 6.95229 0.754591 6.87868C0.77843 6.80506 0.822349 6.73957 0.8814 6.68957C0.940451 6.63957 1.01229 6.60704 1.08883 6.59566L7.11926 5.71603L9.81818 0.231874C9.85184 0.162379 9.90439 0.103769 9.96982 0.0627598C10.0352 0.0217505 10.1109 0 10.1881 0C10.2653 0 10.341 0.0217505 10.4064 0.0627598C10.4718 0.103769 10.5244 0.162379 10.5581 0.231874Z" fill="#639840"/>
</svg>
