<svg width="60" height="60" viewBox="0 0 60 60" fill="none" xmlns="http://www.w3.org/2000/svg">
<g clip-path="url(#clip0_1003_319)">
<path d="M10.4999 36.2499V33.75C7.12492 30.6249 5.74996 25.875 6.99988 21.5C8.12488 17.75 10.1249 14.375 12.9999 11.5001C17.4999 6.87502 23.6249 4.37506 29.9999 4.37506C36.3749 4.37506 42.5 6.87502 47 11.375C49.8749 14.25 51.875 17.75 53 21.375C54.3749 25.7499 52.8749 30.5 49.4999 33.6249V36.2499H59.75C59.6249 35.625 59.375 34.9999 59.125 34.3749C58.125 32.3749 57.875 30.1249 57.75 27.9999C57.625 20.8749 54.8751 13.875 49.6251 8.62498C44.375 3.50002 37.3749 0.624939 29.9999 0.624939C22.625 0.624939 15.6249 3.50002 10.3749 8.75002C4.99996 14.1249 2.24992 21.375 2.24992 28.7499C2.24992 30.75 1.74988 32.625 0.874961 34.5C0.625 35.1249 0.374922 35.75 0.25 36.375H10.4999V36.2499Z" fill="#415A6B"/>
<path d="M13 11.5C13.2499 11.7499 13.6249 11.7499 13.75 11.5C18.25 7.25004 24 5.00004 30 5.00004C36 5.00004 41.7501 7.25004 46.125 11.5001C46.375 11.75 46.75 11.75 46.875 11.5001L49.6251 8.75004C49.875 8.50008 49.875 8.12508 49.6251 7.875C44.375 2.75004 37.375 0 30 0C22.6251 0 15.625 2.75004 10.375 7.875C10.125 8.12496 10.125 8.49996 10.375 8.75004L13 11.5Z" fill="#55C0EB"/>
<path d="M54.875 40.875C54.25 40.875 53.625 41.375 53.5 42L52.625 52.5L31.625 55.375V57.8749L53.875 55C54.5 54.8749 54.875 54.4999 55 53.875L56 42.375C56 41.625 55.5 41 54.875 40.875Z" fill="#415A6B"/>
<path d="M12.5 50.625C10.8749 50.625 9.625 49.3749 9.625 47.8749V28.3749C9.625 26.8749 10.875 25.6249 12.375 25.6249H12.5001C14.0001 25.6249 15.2501 26.8749 15.2501 28.3749V47.8749C15.2499 49.3749 14 50.625 12.5 50.625Z" fill="#E8EAE9"/>
<path d="M10.5 28.125C10.25 28.125 10.125 28.125 9.87504 28.125C4.37496 28.125 0 32.625 0 38C0 43.5 4.5 47.8751 9.87504 47.8751C10.125 47.8751 10.25 47.8751 10.5 47.8751V28.125Z" fill="#55C0EB"/>
<path d="M49.5 28.125C49.75 28.125 49.875 28.125 50.125 28.125C55.625 28.125 60 32.625 60 38C60 43.5 55.5 47.8751 50.125 47.8751C49.875 47.8751 49.75 47.8751 49.5 47.8751V28.125Z" fill="#55C0EB"/>
<path d="M47.5002 50.625C49.1252 50.625 50.3751 49.3749 50.3751 47.8749V28.3749C50.3751 26.8749 49.1251 25.6249 47.6251 25.6249H47.5C46 25.6249 44.75 26.8749 44.75 28.3749V47.8749C44.7502 49.3749 46.0002 50.625 47.5002 50.625Z" fill="#E8EAE9"/>
<path d="M30.5 60C33.0544 60 35.1251 58.6009 35.1251 56.875C35.1251 55.149 33.0544 53.7499 30.5 53.7499C27.9457 53.7499 25.875 55.149 25.875 56.875C25.875 58.6009 27.9457 60 30.5 60Z" fill="#E8EAE9"/>
<path d="M30 21C22.3749 21 16.25 26 16.25 32.25C16.25 35.75 18.125 38.875 21.125 40.875V49L30 43.5C37.625 43.5 43.7499 38.5 43.7499 32.25C43.7499 26 37.625 21 30 21Z" fill="#FFD15C"/>
<path d="M22.375 34.625C23.6867 34.625 24.7501 33.5617 24.7501 32.25C24.7501 30.9383 23.6867 29.875 22.375 29.875C21.0633 29.875 20 30.9383 20 32.25C20 33.5617 21.0633 34.625 22.375 34.625Z" fill="white"/>
<path d="M30 34.625C31.3117 34.625 32.3751 33.5617 32.3751 32.25C32.3751 30.9383 31.3117 29.875 30 29.875C28.6883 29.875 27.625 30.9383 27.625 32.25C27.625 33.5617 28.6883 34.625 30 34.625Z" fill="white"/>
<path d="M37.5 34.625C38.8117 34.625 39.8751 33.5617 39.8751 32.25C39.8751 30.9383 38.8117 29.875 37.5 29.875C36.1883 29.875 35.125 30.9383 35.125 32.25C35.125 33.5617 36.1883 34.625 37.5 34.625Z" fill="white"/>
</g>
<defs>
<clipPath id="clip0_1003_319">
<rect width="60" height="60" fill="white"/>
</clipPath>
</defs>
</svg>
