<svg width="28" height="29" viewBox="0 0 28 29" fill="none" xmlns="http://www.w3.org/2000/svg">
<circle cx="14" cy="14.0854" r="13.5" stroke="#D4D4D8"/>
<path d="M20.2071 11.0686C19.7881 11.2548 19.3458 11.3712 18.8802 11.441C19.3458 11.1617 19.7183 10.7194 19.8812 10.1839C19.4389 10.44 18.9501 10.6263 18.4146 10.7426C17.9956 10.3003 17.3904 10.021 16.7386 10.021C15.4815 10.021 14.4572 11.0453 14.4572 12.3023C14.4572 12.4886 14.4805 12.6515 14.5271 12.8145C12.6415 12.7214 10.9421 11.8135 9.80141 10.4167C9.61518 10.7659 9.49878 11.1384 9.49878 11.5574C9.49878 12.3489 9.89453 13.0473 10.5231 13.4663C10.1506 13.443 9.80141 13.3499 9.4755 13.1869V13.2102C9.4755 14.3276 10.267 15.2588 11.3145 15.4683C11.1283 15.5148 10.9188 15.5381 10.7093 15.5381C10.5696 15.5381 10.4067 15.5148 10.267 15.4916C10.5696 16.3994 11.4077 17.0745 12.4087 17.0745C11.6172 17.6798 10.6395 18.0523 9.56862 18.0523C9.38239 18.0523 9.19616 18.0523 9.0332 18.029C10.0575 18.6808 11.2447 19.0533 12.5483 19.0533C16.7618 19.0533 19.0665 15.5614 19.0665 12.5351C19.0665 12.442 19.0665 12.3256 19.0665 12.2325C19.5088 11.9299 19.9045 11.5341 20.2071 11.0686Z" fill="#090914"/>
</svg>
